# xmcd CD database file
#
# Track frame offsets:
#	150
#	4732
#	20558
#	27896
#	32672
#	44405
#	50696
#	64730
#	71951
#	84647
#	97904
#	108571
#	124796
#	141545
#	151307
#	159857
#	165665
#	176497
#	187727
#	203312
#	224108
#	256040
#	260408
#	275354
#	288041
#
# Disc length: 3942 seconds
#
# Revision: 0
# Processed by: cddbd v1.5.2PL0 Copyright (c) Steve Scherf et al.
# Submitted via: CDex 1.51
#
DISCID=5b0f6419
DTITLE=Johnny Cash - At Folsom Prison, Legacy Edition - Disc 1
DYEAR=2008
DGENRE=Country
TTITLE0=Opening Announcements From Hugh Cherry
TTITLE1=Blue Suede Shoes [Carl Perkins]
TTITLE2=This Ole House [The Statler Brothers]
TTITLE3=Announcements and Johnny Cash Intro from Hugh Cherry
TTITLE4=Folsom Prison Blues
TTITLE5=Busted
TTITLE6=Dark As A Dungeon
TTITLE7=I Still Miss Someone
TTITLE8=Cocaine Blues
TTITLE9=25 Minutes To Go
TTITLE10=I'm Here To Get My Baby Out Of Jail
TTITLE11=Orange Blossom Special
TTITLE12=The Long Black Veil
TTITLE13=Send A Picture Of Mother
TTITLE14=The Wall
TTITLE15=Dirty Old Egg-Sucking Dog
TTITLE16=Flushed From The Bathroom Of Your Heart
TTITLE17=Joe Bean
TTITLE18=Jackson [with June Carter]
TTITLE19=I Got A Woman [with June Carter]
TTITLE20=The Legend Of John Henry's Hammer
TTITLE21=June's Poem
TTITLE22=Green, Green Grass Of Home
TTITLE23=Greystone Chapel
TTITLE24=Closing Announcements
EXTD=YEAR: 2008
EXTT0=
EXTT1=
EXTT2=
EXTT3=
EXTT4=
EXTT5=
EXTT6=
EXTT7=
EXTT8=
EXTT9=
EXTT10=
EXTT11=
EXTT12=
EXTT13=
EXTT14=
EXTT15=
EXTT16=
EXTT17=
EXTT18=
EXTT19=
EXTT20=
EXTT21=
EXTT22=
EXTT23=
EXTT24=
PLAYORDER=
